<?xml version="1.0" encoding="UTF-8"?>
<svg rendering="crispEdges" viewBox="0 0 14 15" xmlns="http://www.w3.org/2000/svg">
<rect x="4" y="2" width="1" height="1" fill="#ab775d" opacity="255" shape-rendering="crispEdges"/>
<rect x="5" y="2" width="1" height="1" fill="#ab775c" opacity="255" shape-rendering="crispEdges"/>
<rect x="6" y="2" width="1" height="1" fill="#ab775c" opacity="255" shape-rendering="crispEdges"/>
<rect x="7" y="2" width="1" height="1" fill="#ab765c" opacity="255" shape-rendering="crispEdges"/>
<rect x="8" y="2" width="1" height="1" fill="#ab775c" opacity="255" shape-rendering="crispEdges"/>
<rect x="9" y="2" width="1" height="1" fill="#ab775c" opacity="255" shape-rendering="crispEdges"/>
<rect x="2" y="3" width="1" height="1" fill="#ab775c" opacity="255" shape-rendering="crispEdges"/>
<rect x="3" y="3" width="1" height="1" fill="#aa775d" opacity="255" shape-rendering="crispEdges"/>
<rect x="4" y="3" width="1" height="1" fill="#fecc7e" opacity="255" shape-rendering="crispEdges"/>
<rect x="5" y="3" width="1" height="1" fill="#fecc7e" opacity="255" shape-rendering="crispEdges"/>
<rect x="6" y="3" width="1" height="1" fill="#fecc7e" opacity="255" shape-rendering="crispEdges"/>
<rect x="7" y="3" width="1" height="1" fill="#eab561" opacity="255" shape-rendering="crispEdges"/>
<rect x="8" y="3" width="1" height="1" fill="#eab563" opacity="255" shape-rendering="crispEdges"/>
<rect x="9" y="3" width="1" height="1" fill="#ebb563" opacity="255" shape-rendering="crispEdges"/>
<rect x="10" y="3" width="1" height="1" fill="#ab775c" opacity="255" shape-rendering="crispEdges"/>
<rect x="11" y="3" width="1" height="1" fill="#ab775e" opacity="255" shape-rendering="crispEdges"/>
<rect x="1" y="4" width="1" height="1" fill="#ab775d" opacity="255" shape-rendering="crispEdges"/>
<rect x="2" y="4" width="1" height="1" fill="#eab563" opacity="255" shape-rendering="crispEdges"/>
<rect x="3" y="4" width="1" height="1" fill="#ebb562" opacity="255" shape-rendering="crispEdges"/>
<rect x="4" y="4" width="1" height="1" fill="#ea9c60" opacity="255" shape-rendering="crispEdges"/>
<rect x="5" y="4" width="1" height="1" fill="#da8b50" opacity="255" shape-rendering="crispEdges"/>
<rect x="6" y="4" width="1" height="1" fill="#d88b50" opacity="255" shape-rendering="crispEdges"/>
<rect x="7" y="4" width="1" height="1" fill="#d98b50" opacity="255" shape-rendering="crispEdges"/>
<rect x="8" y="4" width="1" height="1" fill="#d88b50" opacity="255" shape-rendering="crispEdges"/>
<rect x="9" y="4" width="1" height="1" fill="#ea9e61" opacity="255" shape-rendering="crispEdges"/>
<rect x="10" y="4" width="1" height="1" fill="#eab463" opacity="255" shape-rendering="crispEdges"/>
<rect x="11" y="4" width="1" height="1" fill="#eab563" opacity="255" shape-rendering="crispEdges"/>
<rect x="12" y="4" width="1" height="1" fill="#ab775c" opacity="255" shape-rendering="crispEdges"/>
<rect y="5" width="1" height="1" fill="#ab775c" opacity="255" shape-rendering="crispEdges"/>
<rect x="1" y="5" width="1" height="1" fill="#eab563" opacity="255" shape-rendering="crispEdges"/>
<rect x="2" y="5" width="1" height="1" fill="#ea9e60" opacity="255" shape-rendering="crispEdges"/>
<rect x="3" y="5" width="1" height="1" fill="#d88a52" opacity="255" shape-rendering="crispEdges"/>
<rect x="4" y="5" width="1" height="1" fill="#da8b50" opacity="255" shape-rendering="crispEdges"/>
<rect x="5" y="5" width="1" height="1" fill="#e89e60" opacity="255" shape-rendering="crispEdges"/>
<rect x="6" y="5" width="1" height="1" fill="#eeac6e" opacity="255" shape-rendering="crispEdges"/>
<rect x="7" y="5" width="1" height="1" fill="#edac6c" opacity="255" shape-rendering="crispEdges"/>
<rect x="8" y="5" width="1" height="1" fill="#e89e60" opacity="255" shape-rendering="crispEdges"/>
<rect x="9" y="5" width="1" height="1" fill="#d88b50" opacity="255" shape-rendering="crispEdges"/>
<rect x="10" y="5" width="1" height="1" fill="#d88b50" opacity="255" shape-rendering="crispEdges"/>
<rect x="11" y="5" width="1" height="1" fill="#ea9e60" opacity="255" shape-rendering="crispEdges"/>
<rect x="12" y="5" width="1" height="1" fill="#eab463" opacity="255" shape-rendering="crispEdges"/>
<rect x="13" y="5" width="1" height="1" fill="#ab775c" opacity="255" shape-rendering="crispEdges"/>
<rect y="6" width="1" height="1" fill="#ab775c" opacity="255" shape-rendering="crispEdges"/>
<rect x="1" y="6" width="1" height="1" fill="#eab563" opacity="255" shape-rendering="crispEdges"/>
<rect x="2" y="6" width="1" height="1" fill="#d88950" opacity="255" shape-rendering="crispEdges"/>
<rect x="3" y="6" width="1" height="1" fill="#eead6e" opacity="255" shape-rendering="crispEdges"/>
<rect x="4" y="6" width="1" height="1" fill="#f1b87b" opacity="255" shape-rendering="crispEdges"/>
<rect x="5" y="6" width="1" height="1" fill="#ea9c60" opacity="255" shape-rendering="crispEdges"/>
<rect x="6" y="6" width="1" height="1" fill="#b75c13" opacity="255" shape-rendering="crispEdges"/>
<rect x="7" y="6" width="1" height="1" fill="#a45413" opacity="255" shape-rendering="crispEdges"/>
<rect x="8" y="6" width="1" height="1" fill="#eeac6e" opacity="255" shape-rendering="crispEdges"/>
<rect x="9" y="6" width="1" height="1" fill="#ea9e60" opacity="255" shape-rendering="crispEdges"/>
<rect x="10" y="6" width="1" height="1" fill="#d98b50" opacity="255" shape-rendering="crispEdges"/>
<rect x="11" y="6" width="1" height="1" fill="#d88b50" opacity="255" shape-rendering="crispEdges"/>
<rect x="12" y="6" width="1" height="1" fill="#fece7d" opacity="255" shape-rendering="crispEdges"/>
<rect x="13" y="6" width="1" height="1" fill="#77561f" opacity="255" shape-rendering="crispEdges"/>
<rect y="7" width="1" height="1" fill="#ab775c" opacity="255" shape-rendering="crispEdges"/>
<rect x="1" y="7" width="1" height="1" fill="#ea9e60" opacity="255" shape-rendering="crispEdges"/>
<rect x="2" y="7" width="1" height="1" fill="#ecac6e" opacity="255" shape-rendering="crispEdges"/>
<rect x="3" y="7" width="1" height="1" fill="#db7522" opacity="255" shape-rendering="crispEdges"/>
<rect x="4" y="7" width="1" height="1" fill="#b75c12" opacity="255" shape-rendering="crispEdges"/>
<rect x="5" y="7" width="1" height="1" fill="#b75c13" opacity="255" shape-rendering="crispEdges"/>
<rect x="6" y="7" width="1" height="1" fill="#a45613" opacity="255" shape-rendering="crispEdges"/>
<rect x="7" y="7" width="1" height="1" fill="#eeac6e" opacity="255" shape-rendering="crispEdges"/>
<rect x="8" y="7" width="1" height="1" fill="#ea9e60" opacity="255" shape-rendering="crispEdges"/>
<rect x="9" y="7" width="1" height="1" fill="#d88b50" opacity="255" shape-rendering="crispEdges"/>
<rect x="10" y="7" width="1" height="1" fill="#d88952" opacity="255" shape-rendering="crispEdges"/>
<rect x="11" y="7" width="1" height="1" fill="#ea9e61" opacity="255" shape-rendering="crispEdges"/>
<rect x="12" y="7" width="1" height="1" fill="#fecc7e" opacity="255" shape-rendering="crispEdges"/>
<rect x="13" y="7" width="1" height="1" fill="#77541d" opacity="255" shape-rendering="crispEdges"/>
<rect y="8" width="1" height="1" fill="#ab775d" opacity="255" shape-rendering="crispEdges"/>
<rect x="1" y="8" width="1" height="1" fill="#b75e12" opacity="255" shape-rendering="crispEdges"/>
<rect x="2" y="8" width="1" height="1" fill="#db7422" opacity="255" shape-rendering="crispEdges"/>
<rect x="3" y="8" width="1" height="1" fill="#db7422" opacity="255" shape-rendering="crispEdges"/>
<rect x="4" y="8" width="1" height="1" fill="#b75f12" opacity="255" shape-rendering="crispEdges"/>
<rect x="5" y="8" width="1" height="1" fill="#a45413" opacity="255" shape-rendering="crispEdges"/>
<rect x="6" y="8" width="1" height="1" fill="#d88b50" opacity="255" shape-rendering="crispEdges"/>
<rect x="7" y="8" width="1" height="1" fill="#d88b50" opacity="255" shape-rendering="crispEdges"/>
<rect x="8" y="8" width="1" height="1" fill="#d88b50" opacity="255" shape-rendering="crispEdges"/>
<rect x="9" y="8" width="1" height="1" fill="#d88b50" opacity="255" shape-rendering="crispEdges"/>
<rect x="10" y="8" width="1" height="1" fill="#e89e60" opacity="255" shape-rendering="crispEdges"/>
<rect x="11" y="8" width="1" height="1" fill="#fecc7c" opacity="255" shape-rendering="crispEdges"/>
<rect x="12" y="8" width="1" height="1" fill="#eab763" opacity="255" shape-rendering="crispEdges"/>
<rect x="13" y="8" width="1" height="1" fill="#77541f" opacity="255" shape-rendering="crispEdges"/>
<rect y="9" width="1" height="1" fill="#77561f" opacity="255" shape-rendering="crispEdges"/>
<rect x="1" y="9" width="1" height="1" fill="#db7422" opacity="255" shape-rendering="crispEdges"/>
<rect x="2" y="9" width="1" height="1" fill="#db7422" opacity="255" shape-rendering="crispEdges"/>
<rect x="3" y="9" width="1" height="1" fill="#b75d12" opacity="255" shape-rendering="crispEdges"/>
<rect x="4" y="9" width="1" height="1" fill="#77571f" opacity="255" shape-rendering="crispEdges"/>
<rect x="5" y="9" width="1" height="1" fill="#77561f" opacity="255" shape-rendering="crispEdges"/>
<rect x="6" y="9" width="1" height="1" fill="#ea9e60" opacity="255" shape-rendering="crispEdges"/>
<rect x="7" y="9" width="1" height="1" fill="#fecc7c" opacity="255" shape-rendering="crispEdges"/>
<rect x="8" y="9" width="1" height="1" fill="#fecc7e" opacity="255" shape-rendering="crispEdges"/>
<rect x="9" y="9" width="1" height="1" fill="#fecc7e" opacity="255" shape-rendering="crispEdges"/>
<rect x="10" y="9" width="1" height="1" fill="#fecc7e" opacity="255" shape-rendering="crispEdges"/>
<rect x="11" y="9" width="1" height="1" fill="#e9b563" opacity="255" shape-rendering="crispEdges"/>
<rect x="12" y="9" width="1" height="1" fill="#d79f4b" opacity="255" shape-rendering="crispEdges"/>
<rect x="13" y="9" width="1" height="1" fill="#76561f" opacity="255" shape-rendering="crispEdges"/>
<rect x="1" y="10" width="1" height="1" fill="#77561d" opacity="255" shape-rendering="crispEdges"/>
<rect x="2" y="10" width="1" height="1" fill="#77561f" opacity="255" shape-rendering="crispEdges"/>
<rect x="3" y="10" width="1" height="1" fill="#77561f" opacity="255" shape-rendering="crispEdges"/>
<rect x="5" y="10" width="1" height="1" fill="#77561f" opacity="255" shape-rendering="crispEdges"/>
<rect x="6" y="10" width="1" height="1" fill="#d59f4b" opacity="255" shape-rendering="crispEdges"/>
<rect x="7" y="10" width="1" height="1" fill="#eab561" opacity="255" shape-rendering="crispEdges"/>
<rect x="8" y="10" width="1" height="1" fill="#eab563" opacity="255" shape-rendering="crispEdges"/>
<rect x="9" y="10" width="1" height="1" fill="#eab563" opacity="255" shape-rendering="crispEdges"/>
<rect x="10" y="10" width="1" height="1" fill="#eab763" opacity="255" shape-rendering="crispEdges"/>
<rect x="11" y="10" width="1" height="1" fill="#d59f4b" opacity="255" shape-rendering="crispEdges"/>
<rect x="12" y="10" width="1" height="1" fill="#77541f" opacity="255" shape-rendering="crispEdges"/>
<rect x="5" y="11" width="1" height="1" fill="#77561e" opacity="255" shape-rendering="crispEdges"/>
<rect x="6" y="11" width="1" height="1" fill="#d79f4b" opacity="255" shape-rendering="crispEdges"/>
<rect x="7" y="11" width="1" height="1" fill="#eab563" opacity="255" shape-rendering="crispEdges"/>
<rect x="8" y="11" width="1" height="1" fill="#eab561" opacity="255" shape-rendering="crispEdges"/>
<rect x="9" y="11" width="1" height="1" fill="#d59f4b" opacity="255" shape-rendering="crispEdges"/>
<rect x="10" y="11" width="1" height="1" fill="#77561f" opacity="255" shape-rendering="crispEdges"/>
<rect x="11" y="11" width="1" height="1" fill="#77561f" opacity="255" shape-rendering="crispEdges"/>
<rect x="6" y="12" width="1" height="1" fill="#77561f" opacity="255" shape-rendering="crispEdges"/>
<rect x="7" y="12" width="1" height="1" fill="#77561f" opacity="255" shape-rendering="crispEdges"/>
<rect x="8" y="12" width="1" height="1" fill="#77561f" opacity="255" shape-rendering="crispEdges"/>
<rect x="9" y="12" width="1" height="1" fill="#77561f" opacity="255" shape-rendering="crispEdges"/>
</svg>
